<svg width="19" height="18" viewBox="0 0 19 18" fill="none" xmlns="http://www.w3.org/2000/svg">
<path fill-rule="evenodd" clip-rule="evenodd" d="M3.36324 2.20294C5.03103 0.782395 7.1498 0.00152357 9.34056 0C11.5313 0.00152357 13.6501 0.782395 15.3179 2.20294C16.9857 3.62349 18.0937 5.59104 18.4437 7.75366C18.7938 9.91628 18.363 12.1329 17.2285 14.007C16.094 15.8811 14.3297 17.2905 12.2513 17.983C11.7902 18.0695 11.6173 17.8101 11.6173 17.5508V15.0147C11.6365 14.7027 11.59 14.3901 11.4808 14.0972C11.3716 13.8043 11.2021 13.5376 10.9832 13.3144C13.0294 13.0838 15.1908 12.3057 15.1908 8.76097C15.213 7.84175 14.8712 6.95099 14.2398 6.28254C14.512 5.48297 14.4812 4.61132 14.1533 3.83292C14.1533 3.83292 13.3752 3.60237 11.6173 4.78395C10.8663 4.57586 10.091 4.46924 9.31174 4.46694C8.53267 4.47121 7.75754 4.5778 7.00623 4.78395C5.24827 3.57355 4.47016 3.83292 4.47016 3.83292C4.1423 4.61132 4.11153 5.48297 4.3837 6.28254C3.75685 6.95382 3.41578 7.84267 3.43267 8.76097C3.43267 12.2769 5.5941 13.0838 7.64024 13.3144C7.30836 13.6468 7.10428 14.0856 7.06386 14.5536C6.54512 14.7841 5.21945 15.1876 4.3837 13.7755C4.3837 13.7755 3.89378 12.8821 2.97157 12.8244C2.97157 12.8244 2.07818 12.7956 2.91393 13.372C2.91393 13.372 3.51913 13.6602 3.95141 14.7265C3.95141 14.7265 4.49897 16.3692 7.06386 15.8216V17.5508C7.06386 17.7813 6.89095 18.0695 6.42985 17.983C4.35142 17.2905 2.58716 15.8811 1.45265 14.007C0.318135 12.1329 -0.112628 9.91628 0.237412 7.75366C0.587452 5.59104 1.69546 3.62349 3.36324 2.20294ZM3.46296 13.2568C3.5206 13.2856 3.57823 13.2856 3.60705 13.228C3.63587 13.1991 3.60705 13.1415 3.54941 13.0839C3.46296 13.0551 3.40532 13.0551 3.3765 13.1127C3.34768 13.1703 3.40532 13.228 3.46296 13.2568ZM3.87598 13.6796C3.91238 13.6848 3.94948 13.678 3.9817 13.6603C3.99328 13.6452 4.00173 13.628 4.00655 13.6096C4.01138 13.5913 4.01248 13.5721 4.00979 13.5533C4.00711 13.5345 4.00069 13.5164 3.99092 13.5002C3.98114 13.4839 3.96821 13.4697 3.95288 13.4585C3.92598 13.4341 3.89238 13.4183 3.85643 13.4132C3.82048 13.4081 3.78381 13.4138 3.75115 13.4297C3.73342 13.4619 3.72663 13.499 3.7318 13.5354C3.73698 13.5718 3.75383 13.6056 3.77983 13.6316C3.80583 13.6576 3.83957 13.6744 3.87598 13.6796ZM4.23948 14.1731C4.27648 14.1889 4.31794 14.191 4.35635 14.179C4.41398 14.1502 4.41398 14.0349 4.35635 13.9484C4.33858 13.9123 4.30848 13.8837 4.27148 13.8679C4.23448 13.852 4.19302 13.8499 4.15461 13.862C4.12626 13.8937 4.11058 13.9347 4.11058 13.9773C4.11058 14.0198 4.12626 14.0608 4.15461 14.0925C4.17238 14.1287 4.20248 14.1572 4.23948 14.1731ZM4.61572 14.6689C4.70217 14.7266 4.78863 14.7554 4.84627 14.6977C4.85882 14.6792 4.86733 14.6582 4.87122 14.6361C4.87512 14.614 4.87432 14.5913 4.86889 14.5696C4.86345 14.5478 4.85349 14.5275 4.83967 14.5098C4.82584 14.4922 4.80845 14.4777 4.78863 14.4672C4.75998 14.4356 4.72098 14.4154 4.67869 14.4101C4.6364 14.4048 4.59361 14.4148 4.55808 14.4384C4.50044 14.496 4.52926 14.5825 4.61572 14.6689ZM5.30737 15.0724C5.42265 15.1012 5.5091 15.0724 5.53792 14.9859C5.56674 14.9283 5.48029 14.8418 5.39383 14.7842C5.27855 14.7554 5.1921 14.7842 5.16328 14.8706C5.13446 14.9571 5.1921 15.0436 5.30737 15.0724ZM6.08548 15.1877C6.20076 15.1877 6.28722 15.13 6.28722 15.0436C6.28722 14.9859 6.20076 14.9283 6.08548 14.8995C5.97021 14.8995 5.88375 14.9571 5.88375 15.0436C5.88375 15.13 5.97021 15.1877 6.08548 15.1877ZM6.80596 15.1012C6.92124 15.0724 6.97887 15.0147 6.97887 14.9283C6.97887 14.8706 6.89242 14.813 6.74832 14.8418C6.63305 14.8706 6.57541 14.9283 6.57541 15.0147C6.59858 15.0529 6.63391 15.0822 6.67572 15.0979C6.71753 15.1136 6.7634 15.1147 6.80596 15.1012Z" fill="#6366F1"/>
</svg>
