<svg width="19" height="18" viewBox="0 0 19 18" fill="none" xmlns="http://www.w3.org/2000/svg">
<path d="M15.4538 15.339H12.7888V11.162C12.7888 10.166 12.7688 8.884 11.3988 8.884C10.0098 8.884 9.79784 9.968 9.79784 11.089V15.339H7.13184V6.75H9.69184V7.92H9.72684C10.0848 7.246 10.9548 6.533 12.2548 6.533C14.9548 6.533 15.4548 8.311 15.4548 10.624V15.339H15.4538ZM4.12184 5.575C3.91839 5.57525 3.7169 5.53535 3.5289 5.4576C3.3409 5.37985 3.17011 5.26575 3.02629 5.12185C2.88248 4.97793 2.76849 4.80706 2.69085 4.61901C2.61321 4.43096 2.57344 4.22944 2.57384 4.026C2.57404 3.71984 2.66502 3.42061 2.83528 3.16615C3.00554 2.91169 3.24743 2.71344 3.53037 2.59645C3.8133 2.47947 4.12457 2.44901 4.42482 2.50894C4.72506 2.56887 5.00079 2.71648 5.21714 2.9331C5.43349 3.14974 5.58074 3.42566 5.64029 3.72598C5.69984 4.0263 5.66899 4.33753 5.55164 4.62032C5.43429 4.9031 5.23569 5.14475 4.98103 5.31465C4.72635 5.4846 4.427 5.5752 4.12084 5.575H4.12184ZM5.45784 15.339H2.78484V6.75H5.45884V15.339H5.45784ZM16.7888 0H1.44784C0.711835 0 0.118835 0.58 0.118835 1.297V16.703C0.118835 17.42 0.712835 18 1.44684 18H16.7848C17.5188 18 18.1188 17.42 18.1188 16.703V1.297C18.1188 0.58 17.5188 0 16.7848 0H16.7878H16.7888Z" fill="#6366F1"/>
</svg>
