<svg width="18" height="14" viewBox="0 0 18 14" fill="none" xmlns="http://www.w3.org/2000/svg">
<path d="M5.44847 14C11.8441 14 15.3418 8.6142 15.3418 3.94387C15.3418 3.79066 15.339 3.63818 15.3317 3.48718C16.0104 2.98795 16.601 2.36559 17.0662 1.65745C16.4431 1.93894 15.7724 2.12807 15.0692 2.21385C15.7868 1.77621 16.3385 1.0842 16.5982 0.25877C15.926 0.66342 15.1824 0.958113 14.3906 1.11645C13.7559 0.429574 12.8522 0 11.8527 0C9.93212 0 8.37508 1.58268 8.37508 3.53409C8.37508 3.81118 8.40537 4.08095 8.46523 4.33972C5.5754 4.19237 3.01299 2.78564 1.29799 0.647293C0.999415 1.16923 0.827049 1.77621 0.827049 2.4235C0.827049 3.64991 1.44079 4.73191 2.37474 5.36528C1.80427 5.34768 1.26842 5.18788 0.799643 4.92324C0.798922 4.9379 0.798923 4.95256 0.798923 4.96796C0.798923 6.67965 1.99755 8.10912 3.58851 8.43313C3.29642 8.51377 2.98919 8.55775 2.67187 8.55775C2.44757 8.55775 2.22977 8.53503 2.01847 8.49398C2.46128 9.89781 3.74501 10.9197 5.26673 10.949C4.07675 11.8968 2.57739 12.4621 0.948211 12.4621C0.667665 12.4621 0.390726 12.4459 0.118835 12.413C1.65715 13.415 3.48393 14 5.44847 14Z" fill="#6366F1"/>
</svg>
