<svg width="19" height="18" viewBox="0 0 19 18" fill="none" xmlns="http://www.w3.org/2000/svg">
<path fill-rule="evenodd" clip-rule="evenodd" d="M0.189148 0H0.329773C5.04988 0.00513674 9.57519 1.88247 12.9128 5.22009C16.2504 8.55771 18.1278 13.083 18.1329 17.8031V18H14.7579V17.8031C14.7551 13.9758 13.2347 10.3057 10.53 7.59767C7.82534 4.88965 4.15713 3.36473 0.329773 3.35728H0.189148V0ZM1.20271 13.5525C1.60271 13.2868 2.07257 13.1458 2.55277 13.1473C3.1938 13.153 3.80683 13.4108 4.25941 13.8648C4.71199 14.3188 4.96778 14.9326 4.97152 15.5736C4.97152 16.0538 4.82903 16.5232 4.56208 16.9224C4.29513 17.3216 3.91574 17.6326 3.47194 17.816C3.02814 17.9994 2.5399 18.047 2.06902 17.9528C1.59815 17.8585 1.16584 17.6267 0.826809 17.2866C0.487783 16.9465 0.257298 16.5135 0.164536 16.0423C0.0717742 15.5711 0.120909 15.0831 0.305718 14.6398C0.490527 14.1966 0.802699 13.8182 1.20271 13.5525ZM0.190274 6.06569H0.330899C3.44256 6.06711 6.42624 7.30447 8.62565 9.50562C10.8251 11.7068 12.0601 14.6914 12.059 17.8031V18H8.71215V17.8031C8.70947 15.5811 7.82559 13.4508 6.25438 11.8796C4.68317 10.3084 2.55292 9.42453 0.330899 9.42185H0.190274V6.06569Z" fill="#6366F1"/>
</svg>
