<svg width="70" height="70" viewBox="0 0 70 70" fill="none" xmlns="http://www.w3.org/2000/svg">
<path fill-rule="evenodd" clip-rule="evenodd" d="M61.2494 55.417C61.9928 55.4178 62.7078 55.7025 63.2484 56.2128C63.7889 56.7231 64.1142 57.4206 64.1578 58.1627C64.2014 58.9048 63.9599 59.6356 63.4828 60.2057C63.0056 60.7757 62.3288 61.1421 61.5906 61.2299L61.2494 61.2503H8.74937C8.00597 61.2495 7.29095 60.9648 6.75038 60.4545C6.20982 59.9442 5.88452 59.2467 5.84095 58.5046C5.79739 57.7625 6.03884 57.0317 6.51598 56.4616C6.99312 55.8916 7.66993 55.5252 8.40812 55.4374L8.74937 55.417H61.2494ZM55.416 11.667C56.8877 11.6665 58.3052 12.2223 59.3843 13.223C60.4634 14.2237 61.1244 15.5953 61.2348 17.0628L61.2494 17.5003V46.667C61.2498 48.1387 60.694 49.5561 59.6933 50.6353C58.6927 51.7144 57.3211 52.3754 55.8535 52.4857L55.416 52.5003H14.5827C13.111 52.5008 11.6936 51.945 10.6144 50.9443C9.53533 49.9436 8.87433 48.572 8.76396 47.1045L8.74937 46.667V17.5003C8.74891 16.0286 9.30472 14.6112 10.3054 13.5321C11.3061 12.4529 12.6777 11.792 14.1452 11.6816L14.5827 11.667H55.416ZM55.416 17.5003H14.5827V46.667H55.416V17.5003Z" fill="white"/>
</svg>
